<?xml version="1.0" encoding="UTF-8"?>
<svg xmlns="http://www.w3.org/2000/svg" width="841.9" height="595.3" viewBox="0 0 841.9 595.3">
  <g fill-rule="evenodd" clip-rule="evenodd">
    <path fill="#61DAFB" d="M666.3 296.5c0 91.9-74.4 166.3-166.3 166.3S333.7 388.4 333.7 296.5 408.1 130.3 500 130.3s166.3 74.4 166.3 166.2z"/>
    <path fill="#61DAFB" d="M500 0C223.6 0 0 223.6 0 500s223.6 500 500 500 500-223.6 500-500S776.4 0 500 0zm0 899.9c-218.1 0-399.9-181.8-399.9-399.9S281.9 100 500 100s399.9 181.8 399.9 399.9S718.1 899.9 500 899.9z"/>
  </g>
</svg>